Coordinates
version=1
nRows=39
nColumns=18
inDegrees=yes

Units are S.I. units (second, meters, Newtons, ...)
Angles are in degrees.

endheader
time	ground_thorax_rot_x	ground_thorax_rot_y	ground_thorax_rot_z	ground_thorax_tx	ground_thorax_ty	ground_thorax_tz	clav_prot	clav_elev	scapula_abduction	scapula_elevation	scapula_upward_rot	scapula_winging	plane_elv	shoulder_elv	axial_rot	elbow_flexion	pro_sup
      5.90000000	      0.29460632	     -0.49213942	     -7.10718197	     -0.00423131	      0.00403036	     -0.00078352	    -36.76359451	     -0.40822778	    -31.25703217	     -4.41051447	     22.39606463	     -0.85837392	     -5.45015806	     32.00332122	     -7.56732329	      0.00000000	     34.32000000
      5.91000000	      0.28230151	     -0.47325542	     -7.07436046	     -0.00423131	      0.00403036	     -0.00078352	    -36.75217096	     -0.42638647	    -31.27762355	     -4.40798578	     22.32890106	     -0.83131685	     -6.17804438	     31.50971499	     -7.27752398	      0.00000000	     34.32000000
      5.92000000	      0.41700345	     -0.55354210	     -7.17386828	     -0.00423131	      0.00403036	     -0.00078352	    -36.64495337	     -0.29578390	    -31.29827107	     -4.25405497	     22.10797856	     -0.77952289	     -6.25532827	     31.16978183	     -7.32180273	      0.00000000	     34.32000000
      5.93000000	      0.19735184	     -0.70655416	     -7.07223908	     -0.00423131	      0.00403036	     -0.00078352	    -36.39445624	     -0.11314964	    -31.21027194	     -4.01638333	     21.73874212	     -0.65132053	     -7.25596710	     30.51962004	     -7.31764107	      0.00000000	     34.32000000
      5.94000000	      0.27301581	     -0.90391158	     -7.12427052	     -0.00423131	      0.00403036	     -0.00078352	    -36.09164467	     -0.00782682	    -30.98974114	     -3.83909782	     21.40798538	     -0.48552658	     -7.96765501	     30.04930585	     -7.07053432	      0.00000000	     34.32000000
      5.95000000	      0.48376915	     -0.91716165	     -7.27851777	     -0.00423131	      0.00403036	     -0.00078352	    -35.88013854	     -0.22470341	    -30.70952657	     -3.93917708	     21.22258392	     -0.28744414	     -9.38368588	     29.70614102	     -6.61031140	      0.00000000	     34.32000000
      5.96000000	      0.58358747	     -0.99363548	     -7.19035010	     -0.00423131	      0.00403036	     -0.00078352	    -35.37972254	     -0.52972861	    -30.14153387	     -4.01237661	     20.73848680	      0.12095143	    -11.40528294	     29.94777551	     -6.43877581	      0.00000000	     34.32000000
      5.97000000	      0.67886109	     -1.08393271	     -7.20083977	     -0.00423131	      0.00403036	     -0.00078352	    -34.97665666	     -0.73237727	    -29.60042289	     -4.07317255	     20.49328669	      0.39325981	    -13.21034418	     29.86285764	     -5.85551426	      0.00000000	     34.32000000
      5.98000000	      1.04494869	     -1.10263621	     -7.38715904	     -0.00423131	      0.00403036	     -0.00078352	    -34.81957822	     -0.72227733	    -29.51462886	     -3.99565469	     20.24645051	      0.50677762	    -13.32235652	     29.75478544	     -5.83587433	      0.00000000	     34.32000000
      5.99000000	      0.96749766	     -1.42284115	     -7.43951971	     -0.00423131	      0.00403036	     -0.00078352	    -34.15522528	     -1.07259403	    -28.75138155	     -4.05558981	     19.61949134	      1.00357273	    -14.54136157	     29.99168190	     -5.16155842	      0.00000000	     34.32000000
      6.00000000	      1.06378240	     -1.54303348	     -7.41693201	     -0.00423131	      0.00403036	     -0.00078352	    -33.59996234	     -1.18715317	    -28.10993238	     -3.99243444	     19.17781205	      1.32874673	    -15.56025714	     30.18063815	     -4.49074850	      0.00000000	     34.32000000
      6.01000000	      1.26807089	     -1.44165241	     -7.50141330	     -0.00423131	      0.00403036	     -0.00078352	    -33.32309380	     -1.22029738	    -27.87587798	     -3.91233455	     18.83008377	      1.51195505	    -15.98218074	     30.19904202	     -3.78179019	      0.00000000	     34.32000000
      6.02000000	      1.20969403	     -1.70736469	     -7.51261848	     -0.00423131	      0.00403036	     -0.00078352	    -32.72605570	     -1.42821575	    -27.13864907	     -3.91066633	     18.37121359	      1.87028750	    -17.02876260	     30.11620499	     -3.22350388	      0.00000000	     34.32000000
      6.03000000	      1.36077693	     -1.83001092	     -7.62284868	     -0.00423131	      0.00403036	     -0.00078352	    -32.45217108	     -1.59392766	    -26.92194551	     -3.90588699	     17.92823779	      2.11306783	    -17.23130656	     29.84657905	     -2.64544297	      0.00000000	     34.32000000
      6.04000000	      1.41886005	     -1.95975812	     -7.70759187	     -0.00423131	      0.00403036	     -0.00078352	    -32.19990354	     -1.82804264	    -26.71711862	     -3.95344232	     17.48480940	      2.37028660	    -17.62052992	     29.40213585	     -2.00116502	      0.00000000	     34.32000000
      6.05000000	      1.58562603	     -2.12739107	     -7.72447046	     -0.00423131	      0.00403036	     -0.00078352	    -31.89666421	     -1.87281260	    -26.32616767	     -3.91810075	     17.29830801	      2.51136766	    -18.24165042	     28.88192158	     -1.74918415	      0.00000000	     34.32000000
      6.06000000	      1.74387751	     -2.21604001	     -7.74292377	     -0.00423131	      0.00403036	     -0.00078352	    -31.64662620	     -1.97737392	    -26.01652285	     -3.92592498	     17.08854406	      2.66185367	    -18.81889869	     28.53746308	     -1.42653908	      0.00000000	     34.32000000
      6.07000000	      1.81649666	     -2.33527804	     -7.77714198	     -0.00423131	      0.00403036	     -0.00078352	    -31.39595451	     -2.11896982	    -25.67641709	     -3.96846175	     16.90652058	      2.81555320	    -19.39226242	     28.22093682	     -1.07434624	      0.00000000	     34.32000000
      6.08000000	      1.86421956	     -2.42772311	     -7.80036755	     -0.00423131	      0.00403036	     -0.00078352	    -31.15680425	     -2.22872128	    -25.34924515	     -3.99388003	     16.74822956	      2.94818519	    -19.91484125	     27.89992019	     -0.70592377	      0.00000000	     34.32000000
      6.09000000	      1.89629339	     -2.56994597	     -7.83395311	     -0.00423131	      0.00403036	     -0.00078352	    -30.86133012	     -2.30067258	    -25.00096279	     -3.96182619	     16.49037897	      3.10463206	    -20.13572889	     27.56172312	     -0.35282927	      0.00000000	     34.32000000
      6.10000000	      1.68802573	     -2.67931665	     -7.79279850	     -0.00423131	      0.00403036	     -0.00078352	    -30.60259331	     -2.44580019	    -24.88660350	     -3.90603906	     15.90851471	      3.35659871	    -20.17736124	     27.19813471	     -0.02384425	      0.00000000	     34.32000000
      6.11000000	      1.53024403	     -2.71143431	     -7.90645135	     -0.00423131	      0.00403036	     -0.00078352	    -30.53331420	     -2.68998401	    -24.98868500	     -3.96469880	     15.43145807	      3.57273595	    -20.19618502	     26.73254144	      0.74935619	      0.00000000	     34.32000000
      6.12000000	      1.62038212	     -2.98677362	     -7.98858681	     -0.00423131	      0.00403036	     -0.00078352	    -30.31361579	     -2.71340520	    -24.62206851	     -3.96535436	     15.42767752	      3.62754872	    -20.48523293	     26.13461092	      1.06800608	      0.00000000	     34.32000000
      6.13000000	      1.83122530	     -3.04186295	     -7.92783602	     -0.00423131	      0.00403036	     -0.00078352	    -30.29624810	     -2.74514071	    -24.64825739	     -3.96092116	     15.32075773	      3.66835090	    -20.51441659	     25.95085288	      1.08758280	      0.00000000	     34.32000000
      6.14000000	      1.36820640	     -2.96261922	     -7.92603153	     -0.00423131	      0.00403036	     -0.00078352	    -30.34623890	     -3.15845798	    -24.87902333	     -4.16363201	     14.87328897	      3.90928431	    -21.67835812	     25.18658427	      3.20034055	      0.00000000	     34.32000000
      6.15000000	      1.61081650	     -3.15828780	     -8.02515800	     -0.00423131	      0.00403036	     -0.00078352	    -30.19830775	     -3.09409679	    -24.51031082	     -4.16517364	     15.11268242	      3.85714220	    -22.22181792	     24.60352351	      3.47271546	      0.00000000	     34.32000000
      6.16000000	      1.86381565	     -3.16641828	     -7.99170928	     -0.00423131	      0.00403036	     -0.00078352	    -30.12604499	     -2.96199601	    -24.32103381	     -4.10559762	     15.29264968	      3.78182710	    -22.81767609	     24.28740343	      3.78051120	      0.00000000	     34.32000000
      6.17000000	      1.98051970	     -3.13425374	     -7.95332774	     -0.00423131	      0.00403036	     -0.00078352	    -30.11073290	     -2.97372961	    -24.34228394	     -4.09222010	     15.20934398	      3.80951142	    -22.84683007	     24.20415297	      3.80292328	      0.00000000	     34.32000000
      6.18000000	      1.56676980	     -2.81496166	     -7.88493111	     -0.00423131	      0.00403036	     -0.00078352	    -30.28073828	     -3.18746452	    -24.68689995	     -4.21328142	     15.00013458	      3.90024478	    -24.45920161	     23.69740716	      4.50674562	      0.00000000	     34.32000000
      6.19000000	      1.60450312	     -2.83613649	     -7.90983769	     -0.00423131	      0.00403036	     -0.00078352	    -30.25713182	     -3.17339789	    -24.69161056	     -4.18398234	     14.93388236	      3.91713423	    -24.47277537	     23.53484612	      4.53529211	      0.00000000	     34.32000000
      6.20000000	      1.38251203	     -2.83594471	     -7.85389944	     -0.00423131	      0.00403036	     -0.00078352	    -30.29946876	     -3.14261734	    -24.58875159	     -4.24110576	     15.23733613	      3.82170848	    -25.85425786	     22.29120924	     12.47509051	      0.00000000	     34.32000000
      6.21000000	      1.74099034	     -2.71875490	     -7.96926205	     -0.00423131	      0.00403036	     -0.00078352	    -30.39233219	     -2.90966945	    -24.63337638	     -4.14551162	     15.52928350	      3.65036023	    -25.68049403	     22.03324558	     11.65463749	      0.00000000	     34.32000000
      6.22000000	      1.83421933	     -2.57130254	     -8.03834656	     -0.00423131	      0.00403036	     -0.00078352	    -30.39826176	     -2.88873790	    -24.63873157	     -4.13449911	     15.54672496	      3.63782980	    -26.05215293	     21.85722405	     11.07507312	      0.00000000	     34.32000000
      6.23000000	      1.40836685	     -2.80083794	     -7.82322593	     -0.00423131	      0.00403036	     -0.00078352	    -29.99577359	     -3.05960364	    -24.11578189	     -4.15396517	     15.22884880	      3.85578886	    -27.49452252	     21.63350329	     11.72400564	      0.00000000	     34.32000000
      6.24000000	      1.37623262	     -2.75049876	     -7.85312773	     -0.00423131	      0.00403036	     -0.00078352	    -29.89954120	     -3.02125806	    -23.94745146	     -4.12661552	     15.26273219	      3.85304397	    -28.47792609	     21.20206992	     11.77650126	      0.00000000	     34.32000000
      6.25000000	      1.46344304	     -2.75414115	     -7.93053193	     -0.00423131	      0.00403036	     -0.00078352	    -29.84871484	     -2.98436330	    -23.92873855	     -4.07145106	     15.17074465	      3.87344071	    -28.49240922	     20.94937195	     11.79292302	      0.00000000	     34.32000000
      6.26000000	      1.45737198	     -2.84060039	     -7.87470321	     -0.00423131	      0.00403036	     -0.00078352	    -29.80772994	     -2.81055700	    -23.65819513	     -4.04366626	     15.59123939	      3.71723512	    -30.10392070	     19.94366514	     16.33565971	      0.00000000	     34.32000000
      6.27000000	      1.61818364	     -2.82560399	     -7.89699993	     -0.00423131	      0.00403036	     -0.00078352	    -29.76546821	     -2.81441617	    -23.64461278	     -4.01928139	     15.49558023	      3.75053625	    -30.13856973	     19.78951627	     16.33957703	      0.00000000	     34.32000000
      6.28000000	      1.26268753	     -2.74573247	     -7.91029408	     -0.00423131	      0.00403036	     -0.00078352	    -29.66133407	     -3.05982721	    -23.56562753	     -4.12825067	     15.22199195	      3.92046816	    -32.07670875	     19.49424749	     15.11300208	      0.00000000	     34.32000000
